.
 
http://www.scenetime.com    -  Hottest private tracker on the net. !!!

Sign up will close shortly !!  Join now 

        Seed back for speed


...................................NFO:.................................................[pre]

***** ***       ***** **         ***** *      **        ***** **         ***** *               **          ****           *               * ***         ***** *     **    
  ******  * **    ******  **** *   ******  *    *****     ******  **** *   ******  *             *****         *  *************    *         *  ****      ******  **    **** * 
 **   *  *  **   **   *  * ****   **   *  *       *****  **   *  * ****   **   *  *             *  ***        *     *********     ***       *  *  ***    **   *  * **    ****  
*    *  *   **  *    *  *   **   *    *  **       * **  *    *  *   **   *    *  *                 ***        *     *  *           *       *  **   ***  *    *  *  **    * *   
    *  *    *       *  *             *  ***      *          *  *             *  *                 *  **        **  *  **                  *  ***    ***     *  *    **   *     
   ** **   *       ** **            **   **      *         ** **            ** **                 *  **           *  ***         ***     **   **     **    ** **    **   *     
   ** **  *        ** **            **   **      *         ** **            ** **                *    **         **   **          ***    **   **     **    ** **     **  *     
   ** ****         ** ******        **   **     *          ** ******        ** **                *    **         **   **           **    **   **     **    ** **     **  *     
   ** **  ***      ** *****         **   **     *          ** *****         ** **               *      **        **   **           **    **   **     **    ** **      ** *     
   ** **    **     ** **            **   **     *          ** **            ** **               *********        **   **           **    **   **     **    ** **      ** *     
   *  **    **     *  **             **  **    *           *  **            *  **              *        **        **  **           **     **  **     **    *  **       ***     
      *     **        *               ** *     *              *                *               *        **         ** *      *     **      ** *      *        *        ***     
  ****      ***   ****         *       ***     *          ****         *   ****           *   *****      **         ***     *      **       ***     *     ****          **     
 *  ****    **   *  ***********         *******          *  ***********   *  *************   *   ****    ** *        *******       *** *     *******     *  *****              
*    **     *   *     ******              ***           *     ******     *     *********    *     **      **           ***          ***        ***      *     **               
*               *                                       *                *                  *                                                           *                      
 **              **                                      **               **                 **                                                          **                    
           



                             GRIFF THE INVISIBLE DVDRIP XViD-REVELATiON


 IMDb URL..........:http://www.imdb.com/title/tt1509803/
 IMDB Rating.......:6.3/10                                                                
 Runtime...........:1h 28mn
 Subtitles.........:n/a
 Language..........:english
 Resolution........:720x384                                      

VIDEO
ID                               : 0
Format                           : MPEG-4 Visual
Format profile                   : Advanced Simple@L5
Format settings, BVOP            : 2
Format settings, QPel            : No
Format settings, GMC             : No warppoints
Format settings, Matrix          : Default (H.263)
Muxing mode                      : Packed bitstream
Codec ID                         : XVID
Codec ID/Hint                    : XviD
Duration                         : 1h 28mn
Bit rate                         : 1 748 Kbps
Width                            : 720 pixels
Height                           : 384 pixels
Display aspect ratio             : 1.875
Frame rate                       : 25.000 fps
Color space                      : YUV
Chroma subsampling               : 4:2:0
Bit depth                        : 8 bits
Scan type                        : Progressive
Compression mode                 : Lossy
Bits/(Pixel*Frame)               : 0.253
Stream size                      : 1.09 GiB (79%)
Writing library                  : XviD 64

Audio
ID                               : 1
Format                           : AC-3
Format/Info                      : Audio Coding 3
Mode extension                   : CM (complete main)
Codec ID                         : 2000
Duration                         : 1h 28mn
Bit rate mode                    : Constant
Bit rate                         : 448 Kbps
Channel(s)                       : 6 channels
Channel positions                : Front: L C R, Side: L R, LFE
Sampling rate                    : 48.0 KHz
Bit depth                        : 16 bits
Compression mode                 : Lossy
Stream size                      : 285 MiB (20%)
Alignment                        : Aligned on interleaves
Interleave, duration             : 40 ms (1.00 video frame)
Interleave, preload duration     : 512 ms


 

 
  


 VIDEO:dvd-own
 

 AUDIO:dvd-own


 WORK DONE: GRIFF THE INVISIBLE DVDRIP XViD-REVELATiON

Ok pretty straight forward rip here with just sharpness and resized used.

Audio converted from DTS to AC3 and remuxed....
 

[IMG]http://i.imgur.com/Jno3f.png[/IMG]
[IMG]http://i.imgur.com/XiqY5.png[/IMG]
[IMG]http://i.imgur.com/pdDIn.png[/IMG]
[IMG]http://i.imgur.com/in1jn.png[/IMG]
[IMG]http://i.imgur.com/JQ7HV.png[/IMG]
[IMG]http://i.imgur.com/PJOF2.png[/IMG]

 GREETS 2 U ALL                                   
    

[/pre]